# xmcd
#
# Track frame offsets:
#	150
#	17629
#	36007
#	55359
#	71284
#	93334
#	114237
#	132679
#	146376
#	163357
#
# Disc length: 2469 seconds
#
# Revision: 1
# Processed by: cddbd v1.5.1PL0 Copyright (c) Steve Scherf et al.
# Submitted via: EasyCDDAExtractor 8.1.0.1
#
DISCID=8709a30a
DTITLE=Jules Ellison  - Love Is A Very Good Thing
DYEAR=2005
DGENRE=Blues
TTITLE0=Before I Told You
TTITLE1=Love Is Avery Good Thing
TTITLE2=Love
TTITLE3=Dear God
TTITLE4=Everytime We Say Goodbye
TTITLE5=Everybody's Crying Mercy
TTITLE6=Moment Of Weakness
TTITLE7=Almost Persuaded
TTITLE8=Fly
TTITLE9=You Don't Know What Love Is
EXTD=
EXTT0=
EXTT1=
EXTT2=
EXTT3=
EXTT4=
EXTT5=
EXTT6=
EXTT7=
EXTT8=
EXTT9=
PLAYORDER=
